<?xml version="1.0" encoding="UTF-8" standalone="no"?>
<svg width="534px" height="74px" viewBox="0 0 534 74" version="1.1" xmlns="http://www.w3.org/2000/svg" xmlns:xlink="http://www.w3.org/1999/xlink" xmlns:sketch="http://www.bohemiancoding.com/sketch/ns">
    <!-- Generator: Sketch 3.0.4 (8054) - http://www.bohemiancoding.com/sketch -->
    <title>Slice 2</title>
    <desc>Created with Sketch.</desc>
    <defs></defs>
    <g id="Page-1" stroke="none" stroke-width="1" fill="none" fill-rule="evenodd" sketch:type="MSPage">
        <g id="codenvy-logo" sketch:type="MSLayerGroup">
            <g id="Page-1" sketch:type="MSShapeGroup">
                <g id="logo-normal">
                    <path d="M86.577,57.992 L92.768,57.992 C105.012,57.992 110.602,49.996 110.602,41.915 C110.602,34.381 104.469,28.274 96.922,28.274 C96.065,28.274 95.204,28.361 94.375,28.506 C92.456,23.291 87.44,19.595 81.557,19.595 C80.788,19.595 80.012,19.653 79.297,19.766 C77.2,12.745 70.69,7.648 62.98,7.648 C55.185,7.648 48.585,12.886 46.579,20.052 C45.749,19.939 44.862,19.88 43.969,19.88 C33.446,19.88 24.903,28.415 24.903,38.934 C24.903,49.648 33.564,57.992 44.142,57.992 L86.577,57.992 L86.577,57.992 Z M98.561,21.085 C109.34,21.914 117.827,30.942 117.827,41.915 C117.827,56.185 106.674,65.24 92.768,65.24 L43.566,65.24 C29.234,65.01 17.652,53.317 17.652,38.934 C17.652,25.126 28.315,13.805 41.85,12.718 C46.094,5.239 54.089,0.396 62.98,0.396 C71.786,0.396 79.694,5.122 83.971,12.487 C89.875,13.175 95.178,16.329 98.561,21.085 L98.561,21.085 L98.561,21.085 Z" id="Fill-1" fill="#56A4CF"></path>
                    <path d="M129.874,54.608 C129.842,56.588 129.612,58.218 129.1,59.537 C128.612,60.852 127.981,61.915 127.174,62.686 C126.405,63.491 125.54,64.094 124.651,64.493 C123.733,64.896 122.85,65.154 122.012,65.299 C120.409,65.526 119.805,65.353 118.374,65.353 L118.374,62.201 C119.204,62.201 118.487,62.201 119.317,62.001 C119.897,61.884 120.499,61.602 121.069,61.168 C121.641,60.738 122.127,60.081 122.532,59.193 C122.932,58.332 123.163,57.155 123.163,55.669 L123.163,47.102 C123.163,45.838 123.358,44.751 123.682,43.831 C124.024,42.916 124.426,42.173 124.938,41.571 C125.426,40.968 125.918,40.514 126.428,40.166 C126.918,39.822 127.315,39.564 127.661,39.423 C128.008,39.278 128.18,39.22 128.18,39.22 L128.18,39.106 C128.18,39.106 128.008,39.02 127.661,38.879 C127.315,38.734 126.918,38.48 126.428,38.105 C125.918,37.733 125.426,37.245 124.938,36.642 C124.426,36.04 124.024,35.296 123.682,34.408 C123.358,33.52 123.163,32.46 123.163,31.227 L123.163,23.405 C123.163,21.914 122.932,20.741 122.532,19.88 C122.127,18.992 121.641,18.335 121.069,17.905 C120.499,17.475 119.897,17.189 119.317,17.071 C118.459,16.872 119.233,16.899 118.374,16.899 L118.374,13.723 C118.405,13.723 118.518,13.723 118.778,13.691 C119.032,13.691 119.375,13.665 119.805,13.665 C120.409,13.665 121.155,13.723 122.012,13.836 C122.85,13.977 123.733,14.236 124.651,14.638 C125.54,15.038 126.405,15.64 127.174,16.441 C127.981,17.216 128.612,18.276 129.1,19.567 C129.612,20.885 129.842,22.517 129.874,24.461 L129.874,29.679 C129.874,30.97 130.073,32.03 130.415,32.863 C130.758,33.72 131.192,34.381 131.733,34.893 C132.252,35.382 132.768,35.754 133.286,35.98 C133.801,36.239 134.258,36.388 134.602,36.47 C135.233,36.587 135.922,36.7 135.922,37.588 L135.922,40.855 C135.922,41.739 135.233,41.856 134.602,41.997 C134.258,42.059 133.801,42.204 133.286,42.462 C132.768,42.689 132.252,43.061 131.733,43.55 C131.192,44.035 130.758,44.696 130.415,45.525 C130.073,46.354 129.874,47.387 129.874,48.651 L129.874,54.608" id="Fill-2" fill="#FFFFFF"></path>
                    <path d="M5.635,55.152 C5.635,57.131 5.894,58.762 6.381,60.081 C6.871,61.398 7.528,62.428 8.302,63.229 C9.104,64.035 9.965,64.638 10.854,65.037 C11.773,65.439 12.636,65.698 13.494,65.815 C15.07,66.069 15.672,65.897 17.104,65.897 L17.104,62.717 C16.271,62.717 16.991,62.717 16.189,62.545 C15.587,62.428 15.016,62.142 14.437,61.716 C13.837,61.282 13.349,60.624 12.946,59.741 C12.547,58.875 12.344,57.702 12.344,56.212 L12.344,47.646 C12.344,46.385 12.147,45.267 11.799,44.379 C11.486,43.46 11.056,42.717 10.572,42.114 C10.079,41.512 9.565,41.031 9.081,40.714 C8.592,40.37 8.158,40.111 7.846,39.966 C7.5,39.822 7.329,39.764 7.298,39.764 L7.298,39.65 C7.329,39.65 7.5,39.564 7.846,39.423 C8.158,39.251 8.592,38.993 9.081,38.652 C9.565,38.277 10.079,37.788 10.572,37.189 C11.056,36.587 11.486,35.84 11.799,34.956 C12.147,34.037 12.344,32.977 12.344,31.772 L12.344,23.948 C12.344,22.462 12.547,21.285 12.946,20.393 C13.349,19.54 13.837,18.878 14.437,18.448 C15.016,18.018 15.587,17.732 16.189,17.616 C17.049,17.42 16.243,17.42 17.104,17.42 L17.104,14.267 C17.104,14.267 16.991,14.267 16.709,14.236 C16.474,14.208 16.125,14.208 15.672,14.208 C15.07,14.208 14.354,14.267 13.494,14.38 C12.636,14.521 11.773,14.779 10.854,15.182 C9.965,15.585 9.104,16.184 8.302,16.958 C7.528,17.76 6.871,18.82 6.381,20.107 C5.894,21.429 5.635,23.064 5.635,25.008 L5.635,30.222 C5.607,31.486 5.436,32.578 5.09,33.406 C4.719,34.263 4.286,34.925 3.773,35.437 C3.256,35.926 2.741,36.302 2.224,36.532 C1.681,36.786 1.25,36.931 0.905,37.013 C0.272,37.131 -0.443,37.245 -0.443,38.132 L-0.443,41.398 C-0.443,42.29 0.272,42.4 0.905,42.517 C1.25,42.603 1.681,42.748 2.224,43.006 C2.741,43.233 3.256,43.604 3.773,44.094 C4.286,44.582 4.719,45.24 5.09,46.069 C5.436,46.898 5.607,47.931 5.635,49.194 L5.635,55.152" id="Fill-3" fill="#FFFFFF"></path>
                    <g id="Group" transform="translate(172.000000, 7.000000)" fill="#FFFFFF">
                        <path d="M89.112,30.961 L89.112,34.916 C89.112,37.177 88.795,39.039 88.134,40.474 C87.509,41.937 86.62,43.052 85.444,43.827 C84.293,44.601 82.888,45.149 81.315,45.43 C79.822,45.689 78.246,45.83 76.497,45.861 L71.791,45.861 C70.047,45.83 68.466,45.689 66.976,45.43 C65.399,45.149 63.999,44.601 62.849,43.827 C61.672,43.052 60.783,41.937 60.154,40.474 C59.493,39.039 59.18,37.177 59.18,34.916 L59.18,27.034 C59.18,24.773 59.493,22.911 60.154,21.475 C60.783,20.016 61.672,18.901 62.849,18.126 C63.999,17.352 65.399,16.808 66.976,16.523 C68.466,16.265 70.047,16.12 71.791,16.088 L76.497,16.088 C78.246,16.12 79.822,16.265 81.315,16.523 C82.888,16.808 84.293,17.352 85.444,18.126 C86.62,18.901 87.509,20.016 88.134,21.475 C88.795,22.911 89.112,24.773 89.112,27.034 L89.112,30.961 L89.112,30.961 Z M92.609,13.824 C90.662,12.654 88.365,11.848 85.728,11.364 C83.064,10.902 80.165,10.675 77.014,10.707 L71.279,10.707 C68.095,10.675 65.231,10.902 62.56,11.364 C59.927,11.848 57.627,12.654 55.679,13.824 C53.731,15 52.209,16.605 51.149,18.698 C50.062,20.787 49.518,23.423 49.518,26.666 L49.518,35.288 C49.518,38.527 50.062,41.164 51.149,43.255 C52.209,45.348 53.731,46.949 55.679,48.125 C57.627,49.298 59.927,50.101 62.56,50.586 C65.231,51.047 68.095,51.279 71.279,51.248 L77.014,51.248 C80.165,51.279 83.064,51.047 85.728,50.586 C88.365,50.101 90.662,49.298 92.609,48.125 C94.558,46.949 96.079,45.348 97.14,43.255 C98.226,41.164 98.743,38.527 98.774,35.288 L98.774,26.666 C98.743,23.423 98.226,20.787 97.14,18.698 C96.079,16.605 94.558,15 92.609,13.824 L92.609,13.824 L92.609,13.824 Z" id="Fill-4"></path>
                        <path d="M141.725,30.961 L141.725,35.056 C141.693,37.263 141.38,39.07 140.75,40.474 C140.12,41.937 139.229,43.052 138.055,43.827 C136.877,44.601 135.506,45.149 133.897,45.43 C132.435,45.689 130.826,45.83 129.077,45.861 L124.407,45.861 C122.655,45.83 121.051,45.689 119.592,45.43 C118.016,45.149 116.607,44.601 115.462,43.827 C114.287,43.052 113.4,41.937 112.766,40.474 C112.109,39.039 111.792,37.177 111.792,34.916 L111.792,27.034 C111.792,24.773 112.109,22.911 112.766,21.475 C113.4,20.016 114.287,18.901 115.462,18.126 C116.607,17.352 118.016,16.808 119.592,16.523 C121.051,16.265 122.655,16.12 124.407,16.088 L129.077,16.088 C130.826,16.12 132.435,16.265 133.897,16.523 C135.506,16.808 136.877,17.352 138.055,18.126 C139.229,18.901 140.12,20.016 140.75,21.475 C141.38,22.911 141.725,24.773 141.725,27.034 L141.725,30.961 L141.725,30.961 Z M149.036,-0.044 L144.048,-0.044 C142.784,-0.044 141.751,0.962 141.725,2.221 L141.725,12.22 C140.66,11.875 139.515,11.59 138.341,11.364 C135.678,10.902 132.778,10.675 129.625,10.707 L123.89,10.707 C120.706,10.675 117.812,10.902 115.172,11.364 C112.535,11.848 110.243,12.654 108.295,13.824 C106.343,15 104.825,16.605 103.762,18.698 C102.67,20.787 102.13,23.423 102.13,26.666 L102.13,35.288 C102.13,38.527 102.67,41.164 103.762,43.255 C104.825,45.348 106.343,46.949 108.295,48.125 C110.243,49.298 112.535,50.101 115.172,50.586 C117.812,51.047 120.706,51.279 123.89,51.248 L129.625,51.248 C132.778,51.279 135.678,51.047 138.341,50.586 C140.98,50.101 143.27,49.298 145.222,48.125 C147.169,46.949 148.69,45.348 149.751,43.255 C150.757,41.308 151.3,38.839 151.354,35.894 C151.387,35.832 151.387,35.777 151.387,35.691 L151.387,2.281 C151.387,0.994 150.33,-0.044 149.036,-0.044 L149.036,-0.044 L149.036,-0.044 Z" id="Fill-5"></path>
                        <path d="M9.662,27.034 C9.662,24.773 9.979,22.911 10.636,21.475 C11.269,20.016 12.157,18.901 13.331,18.126 C14.477,17.352 15.885,16.808 17.493,16.523 C18.956,16.265 20.533,16.12 22.277,16.088 L25.316,16.088 C27.069,16.12 28.672,16.265 30.136,16.523 C31.739,16.808 33.12,17.352 34.263,18.126 C35.612,19.014 36.902,20.505 37.016,22.167 C37.016,23.455 38.077,24.484 39.368,24.484 L44.355,24.484 C45.646,24.484 46.705,23.455 46.705,22.167 C46.705,18.698 44.155,15.545 41.288,13.824 C39.309,12.654 37.047,11.848 34.376,11.364 C31.739,10.902 28.614,10.675 25.461,10.707 L21.761,10.707 C18.608,10.675 15.713,10.902 13.045,11.364 C10.409,11.848 8.116,12.654 6.165,13.824 C4.216,15 2.695,16.605 1.635,18.698 C0.543,20.787 0.031,23.423 0,26.666 L0,35.288 C0.031,38.527 0.543,41.164 1.635,43.255 C2.695,45.348 4.216,46.949 6.165,48.125 C8.116,49.298 10.409,50.101 13.045,50.586 C15.713,51.047 18.608,51.279 21.761,51.248 L25.461,51.248 C28.614,51.279 31.739,51.047 34.376,50.586 C37.047,50.101 39.309,49.298 41.288,48.125 C44.155,46.404 46.705,43.255 46.705,39.787 C46.705,38.496 45.646,37.466 44.355,37.466 L39.368,37.466 C38.077,37.466 37.016,38.496 37.016,39.787 C36.902,41.453 35.612,42.935 34.263,43.827 C33.12,44.601 31.739,45.149 30.136,45.43 C28.672,45.689 27.069,45.83 25.316,45.861 L22.277,45.861 C20.533,45.83 18.956,45.689 17.493,45.43 C15.885,45.149 14.477,44.601 13.331,43.827 C12.157,43.052 11.269,41.937 10.636,40.474 C9.979,39.039 9.662,37.177 9.662,34.916 L9.662,27.034" id="Fill-7"></path>
                        <path d="M194.885,28.269 L164.948,28.269 L164.948,27.034 C164.948,24.773 165.292,22.911 165.922,21.475 C166.557,20.016 167.467,18.901 168.649,18.126 C169.792,17.352 171.199,16.808 172.807,16.523 C174.297,16.265 175.901,16.12 177.65,16.088 L182.18,16.088 C183.928,16.12 185.532,16.265 187.026,16.523 C188.629,16.808 190.038,17.352 191.184,18.126 C192.362,18.901 193.276,20.016 193.903,21.475 C194.536,22.884 194.856,24.687 194.885,26.893 L194.885,28.269 L194.885,28.269 Z M198.497,13.824 C196.547,12.654 194.223,11.848 191.551,11.364 C188.887,10.902 185.989,10.675 182.809,10.707 L177.333,10.707 C174.152,10.675 171.231,10.902 168.56,11.364 C165.891,11.848 163.603,12.654 161.624,13.824 C159.674,15 158.153,16.605 157.094,18.698 C156.003,20.787 155.458,23.423 155.427,26.666 L155.427,35.288 C155.458,38.527 156.003,41.164 157.094,43.255 C158.153,45.348 159.674,46.949 161.624,48.125 C163.603,49.298 165.891,50.101 168.56,50.586 C171.231,51.047 174.152,51.279 177.333,51.248 L182.809,51.248 C185.989,51.279 188.887,51.047 191.551,50.586 C194.223,50.101 196.547,49.298 198.497,48.125 C200.444,46.949 201.993,45.348 203.053,43.255 C203.624,42.165 204.37,40.189 201.362,40.189 L196.17,40.189 C195.053,40.189 194.34,40.501 193.79,40.932 C192.647,41.824 192.389,42.767 190.811,43.827 C189.663,44.601 188.258,45.149 186.649,45.43 C185.165,45.689 183.555,45.83 181.808,45.861 L178.197,45.861 L177.65,45.861 C175.901,45.83 174.297,45.689 172.807,45.43 C171.199,45.149 169.792,44.601 168.649,43.827 C167.467,43.052 166.557,41.937 165.922,40.474 C165.292,39.039 164.948,37.177 164.948,34.916 L164.948,33.683 L201.993,33.683 C203.483,33.683 204.69,32.451 204.69,30.961 L204.69,26.294 C204.69,23.827 204.198,20.932 203.053,18.698 C201.993,16.605 200.444,15 198.497,13.824 L198.497,13.824 L198.497,13.824 Z" id="Fill-9"></path>
                        <path d="M255.18,15.205 C253.942,13.968 252.254,12.998 250.129,12.279 C240.151,8.872 226.19,12.02 219.024,19.445 L219.024,13.225 C219.024,11.938 217.963,10.878 216.672,10.878 L211.686,10.878 C210.395,10.878 209.362,11.938 209.362,13.225 L209.362,48.927 C209.362,50.214 210.395,51.248 211.686,51.248 L216.672,51.248 C217.963,51.248 219.024,50.214 219.024,48.927 L219.024,31.419 C219.024,21.792 236.598,13.824 245.2,18.298 C246.26,18.842 247.094,19.499 247.633,20.301 C248.213,21.077 248.584,21.964 248.756,22.938 C248.959,23.916 249.042,25 249.042,26.15 L249.042,48.927 C249.042,50.214 250.075,51.248 251.366,51.248 L256.381,51.248 C257.643,51.248 258.704,50.214 258.704,48.927 L258.704,24.546 C258.704,22.74 258.446,21.048 257.903,19.468 C257.327,17.869 256.44,16.433 255.18,15.205" id="Fill-10"></path>
                        <path d="M359.684,10.878 L354.643,10.878 C353.319,10.878 352.264,11.938 352.264,13.256 L352.264,30.961 C352.264,40.732 335.663,48.783 326.944,44.252 C325.883,43.714 325.02,43.025 324.479,42.253 C323.903,41.453 323.532,40.56 323.329,39.559 C323.157,38.554 323.04,37.466 323.071,36.292 L323.071,13.256 C323.071,11.938 322.014,10.878 320.688,10.878 L315.649,10.878 C314.329,10.878 313.268,11.938 313.268,13.256 L313.268,37.951 C313.268,39.759 313.553,41.476 314.096,43.08 C314.641,44.683 315.559,46.147 316.848,47.382 C318.114,48.638 319.809,49.644 321.956,50.359 C331.704,53.684 345.52,50.101 352.264,43.08 L352.264,47.61 C352.292,48.783 352.202,49.902 352.004,50.935 C351.803,51.995 351.426,52.997 350.856,53.942 C350.311,54.889 349.448,55.804 348.387,56.693 C344.174,60.072 335.889,61.164 331.297,61.045 L329.637,61.045 C328.946,61.045 328.379,61.622 328.379,62.305 L328.379,65.717 C328.379,66.432 328.946,66.98 329.637,66.98 L331.247,66.98 C337.235,67.175 345.29,66.001 351.631,62.567 C357.165,59.587 362.067,53.942 362.067,47.324 L362.067,22.97 L362.067,13.256 C362.067,11.938 361.002,10.878 359.684,10.878" id="Fill-12"></path>
                        <path d="M308.852,10.878 L304.522,10.878 C303.231,10.878 302.202,11.848 301.487,13.225 L286.172,41.621 C285.542,42.625 285.198,43.138 284.852,43.194 C284.508,43.138 284.133,42.625 283.536,41.621 L268.225,13.225 C267.477,11.848 266.446,10.878 265.186,10.878 L260.829,10.878 C257.385,10.878 257.704,12.74 258.676,14.372 L276.678,47.782 L277.489,48.927 C278.344,50.214 280.122,51.248 281.415,51.248 L288.295,51.248 C289.555,51.248 291.334,50.214 292.223,48.927 L292.999,47.782 L311,14.372 C312.004,12.74 312.293,10.878 308.852,10.878" id="Fill-14"></path>
                    </g>
                </g>
            </g>
        </g>
    </g>
</svg>